<svg xmlns="http://www.w3.org/2000/svg" viewBox="0 0 512 512">
  <defs>
    <linearGradient id="bg" x1="0%" y1="0%" x2="100%" y2="100%">
      <stop offset="0%" style="stop-color:#1c1917"/>
      <stop offset="100%" style="stop-color:#0c0a09"/>
    </linearGradient>
  </defs>
  <!-- Background rounded square -->
  <rect x="16" y="16" width="480" height="480" rx="96" fill="url(#bg)"/>
  <!-- Lowercase alpha (α) - sleek minimal design -->
  <path
    d="M340 340
       C340 380 310 400 270 400
       C200 400 150 350 150 270
       C150 190 200 140 270 140
       C310 140 340 160 340 200
       L340 340
       M340 270
       C340 230 310 200 270 200
       C230 200 210 230 210 270
       C210 310 230 340 270 340
       C310 340 340 310 340 270 Z"
    fill="none"
    stroke="#b57171"
    stroke-width="28"
    stroke-linecap="round"
    stroke-linejoin="round"
  />
</svg>
